{"title":"Kung.Fu.Panda.Legends.of.Awesomeness.S02E02.WEB-DL.x264-h65.mp4","uid":7677914,"size":203792939,"categoryP":"video","categoryS":"tv_shows","magnet":"?xt=urn:btih:9e8910d48ce13270066c4fc210e3881c44a029e3&amp;dn=Kung.Fu.Panda.Legends.of.Awesomeness.S02E02.WEB-DL.x264-h65.mp4&amp;tr=udp%3A%2F%2Ftracker.openbittorrent.com%3A80&amp;tr=udp%3A%2F%2Fopen.demonii.com%3A1337&amp;tr=udp%3A%2F%2Ftracker.coppersurfer.tk%3A6969&amp;tr=udp%3A%2F%2Fexodus.desync.com%3A6969","seeders":1,"leechers":1,"uploader":"helder1965","files":-1,"time":1348752544,"description":"Kung.Fu.Panda.Legends.of.Awesomeness.S02E02.WEB-DL.x264-h65.mp4\n\n\nEnjoy and seed it, buddies!\n\n&quot;-h65&quot;, a new name for an old friend of yours!\nYeah, baby!\n@helder1965\n\n------------------------------------------\n\nGeneral\nFormat                                   : MPEG-4\nFormat profile                           : Base Media\nCodec ID                                 : isom\nFile size                                : 194 MiB\nDuration                                 : 23mn 55s\nOverall bit rate mode                    : Variable\nOverall bit rate                         : 1 136 Kbps\n\n\nVideo\nID                                       : 1\nFormat                                   : AVC\nFormat/Info                              : Advanced Video Codec\nFormat profile                           : &lt;a class=&quot;__cf_email__&quot; href=&quot;/cdn-cgi/l/email-protection&quot; data-cfemail=&quot;266e4f414e666a150817&quot;&gt;[email&amp;#160;protected]&lt;/a&gt;&lt;script cf-hash='f9e31' type=&quot;text/javascript&quot;&gt;\n/* &lt;![CDATA[ */!function(){try{var t=&quot;currentScript&quot;in document?document.currentScript:function(){for(var t=document.getElementsByTagName(&quot;script&quot;),e=t.length;e--;)if(t[e].getAttribute(&quot;cf-hash&quot;))return t[e]}();if(t&amp;&amp;t.previousSibling){var e,r,n,i,c=t.previousSibling,a=c.getAttribute(&quot;data-cfemail&quot;);if(a){for(e=&quot;&quot;,r=parseInt(a.substr(0,2),16),n=2;a.length-n;n+=2)i=parseInt(a.substr(n,2),16)^r,e+=String.fromCharCode(i);e=document.createTextNode(e),c.parentNode.replaceChild(e,c)}}}catch(u){}}();/* ]]&gt; */&lt;/script&gt;\nFormat settings, CABAC                   : Yes\nFormat settings, ReFrames                : 2 frames\nCodec ID                                 : avc1\nCodec ID/Info                            : Advanced Video Coding\nDuration                                 : 23mn 55s\nBit rate                                 : 940 Kbps\nMaximum bit rate                         : 4 713 Kbps\nWidth                                    : 720 pixels\nHeight                                   : 404 pixels\nDisplay aspect ratio                     : 16:9\nOriginal display aspect ratio            : 16:9\nFrame rate mode                          : Constant\nFrame rate                               : 23.976 fps\nColor space                              : YUV\nChroma subsampling                       : 4:2:0\nBit depth                                : 8 bits\nScan type                                : Progressive\nBits/(Pixel*Frame)                       : 0.135\nStream size                              : 161 MiB (83%)\n\n\nAudio\nID                                       : 2\nFormat                                   : AAC\nFormat/Info                              : Advanced Audio Codec\nFormat profile                           : LC\nCodec ID                                 : 40\nDuration                                 : 23mn 55s\nBit rate mode                            : Variable\nBit rate                                 : 192 Kbps\nMaximum bit rate                         : 198 Kbps\nChannel(s)                               : 2 channels\nChannel positions                        : Front: L R\nSampling rate                            : 48.0 KHz\nCompression mode                         : Lossy\nStream size                              : 32.8 MiB (17%)","torrent":{"xt":"urn:btih:9e8910d48ce13270066c4fc210e3881c44a029e3","amp;dn":"Kung.Fu.Panda.Legends.of.Awesomeness.S02E02.WEB-DL.x264-h65.mp4","amp;tr":["udp%3A%2F%2Ftracker.openbittorrent.com%3A80","udp%3A%2F%2Fopen.demonii.com%3A1337","udp%3A%2F%2Ftracker.coppersurfer.tk%3A6969","udp%3A%2F%2Fexodus.desync.com%3A6969"],"infoHash":"9e8910d48ce13270066c4fc210e3881c44a029e3","infoHashBuffer":{"type":"Buffer","data":[158,137,16,212,140,225,50,112,6,108,79,194,16,227,136,28,68,160,41,227]},"announce":[],"urlList":[]}}